# xmcd
#
# Track frame offsets:
#	150
#	13657
#	32035
#	47935
#	61135
#	75535
#	88507
#	100957
#	111610
#	126085
#	138160
#	152260
#	171310
#	187060
#	200935
#	215782
#
# Disc length: 3087
#
# Revision: 2
# Processed by: cddbd v1.5.1PL0 Copyright (c) Steve Scherf et al.
# Submitted via: audiograbber 1.83.01
# Normalized: r1:TDELIM( - )
#
DISCID=e60c0d10
DTITLE=Otis Redding/Percy Sledge - LG036
DYEAR=1900
DGENRE=Karaoke R&B
TTITLE0=Otis Redding - Dock Of The Bay, The
TTITLE1=Otis Redding - Try A Little Tenderness
TTITLE2=Otis Redding - I've Been Loving You So Long
TTITLE3=Otis Redding - Fa Fa Fa Fa Fa
TTITLE4=Otis Redding - Tramp
TTITLE5=Otis Redding - Happy Song, The
TTITLE6=Otis Redding - Papa's Got A brand New Bag
TTITLE7=Percy Sledge - Respect
TTITLE8=Percy Sledge - My Girl
TTITLE9=Percy Sledge - Hard To Handle
TTITLE10=Percy Sledge - Knock On Wood
TTITLE11=Percy Sledge - When A Man Loves A Woman
TTITLE12=Percy Sledge - Warm And Tender Love
TTITLE13=Percy Sledge - It Tears Me Up
TTITLE14=Percy Sledge - Take Time To Know Her
TTITLE15=Percy Sledge - Love Me Tender
EXTD=
EXTT0=
EXTT1=
EXTT2=
EXTT3=
EXTT4=
EXTT5=
EXTT6=
EXTT7=
EXTT8=
EXTT9=
EXTT10=
EXTT11=
EXTT12=
EXTT13=
EXTT14=
EXTT15=
PLAYORDER=
